PathFileType	4	(X/Y/Z)	Gait_media_markers.trc
DataRate	CameraRate	NumFrames	NumMarkers	Units	OrigDataRate	OrigDataStartFrame	OrigNumFrames
100	100	8	38	m	100	24	93
Frame#	Time	RASI			RPSI			LPSI			LASI			RTROCH			RTHI			RTHI2			RTHI3			RTHI4			RKNE			RKNEM			RTIB			RTIB2			RTIB3			RTIB4			RANK			RANKM			RHEE			RTOE			RTOEL			RTOEM			LTROCH			LTHI			LTHI2			LTHI3			LTHI4			LKNE			LKNEM			LTIB			LTIB2			LTIB3			LTIB4			LANK			LANKM			LHEE			LTOE			LTOEL			LTOEM
		X1	Y1	Z1	X2	Y2	Z2	X3	Y3	Z3	X4	Y4	Z4	X5	Y5	Z5	X6	Y6	Z6	X7	Y7	Z7	X8	Y8	Z8	X9	Y9	Z9	X10	Y10	Z10	X11	Y11	Z11	X12	Y12	Z12	X13	Y13	Z13	X14	Y14	Z14	X15	Y15	Z15	X16	Y16	Z16	X17	Y17	Z17	X18	Y18	Z18	X19	Y19	Z19	X20	Y20	Z20	X21	Y21	Z21	X22	Y22	Z22	X23	Y23	Z23	X24	Y24	Z24	X25	Y25	Z25	X26	Y26	Z26	X27	Y27	Z27	X28	Y28	Z28	X29	Y29	Z29	X30	Y30	Z30	X31	Y31	Z31	X32	Y32	Z32	X33	Y33	Z33	X34	Y34	Z34	X35	Y35	Z35	X36	Y36	Z36	X37	Y37	Z37	X38	Y38	Z38

24	0.230000	-0.329695	0.940637	-0.480549	-0.253980	0.991731	-0.656919	-0.156362	0.981918	-0.648472	-0.107174	0.958051	-0.456618	-0.383279	0.870273	-0.562968	-0.384141	0.753835	-0.593254	-0.375091	0.750294	-0.523478	-0.365881	0.667642	-0.521600	-0.373902	0.664275	-0.586289	-0.349277	0.515812	-0.602839	-0.233847	0.520911	-0.594694	-0.374568	0.413200	-0.692747	-0.342913	0.377811	-0.649867	-0.341251	0.309527	-0.705591	-0.374426	0.350358	-0.745284	-0.333207	0.181803	-0.891998	-0.258158	0.178140	-0.865916	-0.297109	0.170594	-0.973315	-0.275901	0.050150	-0.783429	-0.339533	0.044716	-0.831492	-0.227749	0.043274	-0.813350	-0.042271	0.885785	-0.516578	-0.060519	0.691177	-0.414794	-0.098686	0.710853	-0.368972	-0.116323	0.631354	-0.350733	-0.078207	0.606731	-0.396432	-0.112419	0.535911	-0.362776	-0.211669	0.545333	-0.404619	-0.080706	0.310205	-0.358852	-0.124460	0.320620	-0.312310	-0.130632	0.233340	-0.311379	-0.088346	0.227266	-0.357522	-0.111774	0.093806	-0.351391	-0.193389	0.118682	-0.345439	-0.146167	0.052768	-0.413675	-0.168292	0.072483	-0.182358	-0.108310	0.048614	-0.214998	-0.215218	0.057658	-0.209619
25	0.240000	-0.329746	0.942032	-0.469638	-0.252548	0.993219	-0.645049	-0.155048	0.983530	-0.635815	-0.107576	0.959722	-0.443391	-0.381997	0.870410	-0.551710	-0.383312	0.752432	-0.578915	-0.374718	0.750287	-0.508652	-0.366280	0.667796	-0.504718	-0.373763	0.662905	-0.569368	-0.350644	0.514276	-0.581474	-0.236074	0.517785	-0.570433	-0.375814	0.413630	-0.671900	-0.344343	0.377000	-0.630789	-0.342709	0.310738	-0.688709	-0.375003	0.352664	-0.727134	-0.335119	0.190077	-0.879794	-0.260117	0.185396	-0.852675	-0.298756	0.184725	-0.960881	-0.278714	0.052183	-0.778791	-0.339818	0.047414	-0.828441	-0.228767	0.048458	-0.807798	-0.041613	0.888153	-0.502768	-0.060500	0.692828	-0.403368	-0.099071	0.711414	-0.357420	-0.116191	0.631919	-0.340430	-0.077026	0.607868	-0.386057	-0.111721	0.535528	-0.354094	-0.212022	0.545857	-0.396682	-0.081103	0.309892	-0.352578	-0.125523	0.319656	-0.306423	-0.131482	0.232315	-0.307070	-0.088782	0.226969	-0.352751	-0.112122	0.094063	-0.349928	-0.193786	0.118626	-0.344523	-0.146223	0.053094	-0.413279	-0.168713	0.069380	-0.180646	-0.108689	0.046400	-0.214175	-0.216228	0.055777	-0.208440
26	0.250000	-0.329723	0.943586	-0.459126	-0.251009	0.994483	-0.633551	-0.153557	0.985097	-0.623246	-0.107851	0.961537	-0.430386	-0.380765	0.870825	-0.540724	-0.382759	0.751186	-0.564466	-0.374567	0.750635	-0.493805	-0.366864	0.668107	-0.487484	-0.373947	0.661657	-0.552074	-0.352462	0.513177	-0.560483	-0.237308	0.515689	-0.546551	-0.377585	0.414725	-0.651424	-0.345732	0.376733	-0.610811	-0.344131	0.312478	-0.670865	-0.376671	0.355930	-0.708742	-0.336842	0.198772	-0.866749	-0.262442	0.193335	-0.838167	-0.299237	0.199424	-0.946721	-0.281866	0.055535	-0.771989	-0.340276	0.051291	-0.824543	-0.230398	0.055823	-0.799872	-0.041112	0.890131	-0.489538	-0.060045	0.693382	-0.393338	-0.098053	0.710297	-0.346369	-0.113955	0.630232	-0.331288	-0.075761	0.607843	-0.378142	-0.111199	0.535179	-0.345789	-0.212536	0.546691	-0.389967	-0.081559	0.309972	-0.346609	-0.126775	0.318885	-0.300929	-0.132605	0.231484	-0.303029	-0.089076	0.227016	-0.348284	-0.112584	0.093969	-0.348472	-0.194097	0.117943	-0.342561	-0.146261	0.053348	-0.412873	-0.167964	0.067745	-0.178865	-0.108224	0.045580	-0.213470	-0.215787	0.054965	-0.206964
27	0.260000	-0.329509	0.945109	-0.448541	-0.249301	0.995612	-0.622214	-0.152113	0.986731	-0.610932	-0.108046	0.963101	-0.417756	-0.379703	0.871423	-0.529718	-0.381775	0.748503	-0.545725	-0.374993	0.751144	-0.478315	-0.367573	0.668922	-0.470064	-0.374384	0.661013	-0.534914	-0.353299	0.512453	-0.538782	-0.237980	0.514395	-0.522909	-0.378676	0.416486	-0.630038	-0.347356	0.376940	-0.590919	-0.345682	0.314456	-0.653076	-0.378064	0.359335	-0.689456	-0.338306	0.207901	-0.852620	-0.264828	0.201535	-0.822183	-0.300252	0.213798	-0.931194	-0.285691	0.059065	-0.763756	-0.340900	0.055537	-0.819997	-0.231719	0.064573	-0.789690	-0.040695	0.891692	-0.476871	-0.058962	0.691968	-0.383947	-0.096011	0.707954	-0.335833	-0.111700	0.627445	-0.322752	-0.074654	0.606599	-0.371149	-0.111333	0.534954	-0.337323	-0.212918	0.547516	-0.382610	-0.081844	0.309930	-0.341163	-0.127016	0.318546	-0.295223	-0.133345	0.230646	-0.299407	-0.089349	0.227127	-0.344123	-0.112872	0.093882	-0.347057	-0.194445	0.117568	-0.341440	-0.146176	0.053651	-0.412624	-0.168076	0.066399	-0.177702	-0.108294	0.045117	-0.212864	-0.215663	0.054122	-0.206050
28	0.270000	-0.329200	0.946548	-0.437779	-0.247667	0.996631	-0.610986	-0.150733	0.988226	-0.598871	-0.107932	0.964396	-0.405404	-0.378842	0.872321	-0.518493	-0.382263	0.749923	-0.533922	-0.375646	0.752355	-0.464546	-0.368737	0.670828	-0.453459	-0.374891	0.660977	-0.517615	-0.355538	0.512758	-0.518194	-0.234341	0.517097	-0.501730	-0.380074	0.419031	-0.609206	-0.349241	0.377974	-0.570623	-0.347833	0.317513	-0.634721	-0.379287	0.363108	-0.669751	-0.339909	0.217298	-0.837397	-0.267106	0.209379	-0.804994	-0.300475	0.227259	-0.913780	-0.290057	0.062875	-0.753432	-0.341715	0.061105	-0.812782	-0.235262	0.071679	-0.777022	-0.040190	0.893256	-0.464546	-0.058949	0.690451	-0.375836	-0.093343	0.705197	-0.325829	-0.110000	0.624828	-0.314527	-0.074818	0.604570	-0.364464	-0.111819	0.534936	-0.329007	-0.209622	0.547466	-0.373688	-0.081901	0.309857	-0.336335	-0.127489	0.317717	-0.290543	-0.133631	0.230063	-0.296197	-0.089313	0.227137	-0.340592	-0.113048	0.094011	-0.345872	-0.194926	0.117754	-0.340972	-0.146163	0.053946	-0.412444	-0.168359	0.065071	-0.177232	-0.108480	0.044902	-0.212559	-0.216104	0.053559	-0.205595
29	0.280000	-0.328633	0.949126	-0.424909	-0.246007	0.997609	-0.599807	-0.149358	0.989566	-0.586940	-0.107558	0.965735	-0.393264	-0.378132	0.873646	-0.507083	-0.381798	0.748543	-0.516777	-0.376416	0.753946	-0.450508	-0.370057	0.672895	-0.436923	-0.375725	0.662037	-0.501401	-0.356873	0.513598	-0.497222	-0.235668	0.517113	-0.478742	-0.381484	0.422506	-0.588462	-0.351696	0.380127	-0.550457	-0.350413	0.321324	-0.615959	-0.381248	0.368041	-0.649700	-0.341033	0.225909	-0.821338	-0.268611	0.216390	-0.787554	-0.300102	0.237532	-0.896389	-0.293887	0.067637	-0.740232	-0.343862	0.068282	-0.801765	-0.238163	0.077375	-0.762479	-0.040142	0.894750	-0.452665	-0.058143	0.688661	-0.367676	-0.090743	0.703694	-0.316685	-0.108734	0.623442	-0.306126	-0.075700	0.603375	-0.357190	-0.112011	0.534790	-0.320933	-0.206334	0.547171	-0.365064	-0.081665	0.309942	-0.331946	-0.127547	0.317001	-0.286244	-0.133662	0.229319	-0.293259	-0.089070	0.227017	-0.337486	-0.113008	0.094140	-0.344873	-0.194747	0.117391	-0.339939	-0.146105	0.054243	-0.412326	-0.168182	0.064050	-0.176541	-0.108333	0.044595	-0.212305	-0.216014	0.053266	-0.205157
30	0.290000	-0.328105	0.950864	-0.414038	-0.244575	0.998673	-0.588732	-0.148255	0.991036	-0.575309	-0.106948	0.966883	-0.381406	-0.377677	0.875421	-0.495445	-0.381791	0.749842	-0.502143	-0.377302	0.756649	-0.437204	-0.371556	0.675573	-0.421174	-0.377308	0.665286	-0.488012	-0.359119	0.515375	-0.477260	-0.237971	0.518154	-0.457360	-0.382692	0.426435	-0.567403	-0.354616	0.383071	-0.530164	-0.353346	0.325514	-0.596918	-0.382761	0.373782	-0.630571	-0.341474	0.233738	-0.804022	-0.269451	0.222581	-0.769805	-0.299516	0.245259	-0.878689	-0.297402	0.073490	-0.724142	-0.346952	0.075706	-0.785746	-0.241492	0.082862	-0.746224	-0.039601	0.896198	-0.441016	-0.057553	0.688930	-0.359614	-0.089241	0.703942	-0.307618	-0.107724	0.623729	-0.297545	-0.076248	0.603509	-0.349651	-0.111482	0.534353	-0.313608	-0.210007	0.548420	-0.353615	-0.081129	0.309777	-0.327773	-0.127557	0.316371	-0.282474	-0.133527	0.228957	-0.290529	-0.088812	0.226986	-0.334573	-0.112904	0.094349	-0.344190	-0.194782	0.117084	-0.339549	-0.145972	0.054488	-0.412194	-0.168127	0.063231	-0.176360	-0.108160	0.044386	-0.212141	-0.216054	0.053175	-0.205011
31	0.300000	-0.327368	0.952953	-0.402834	-0.243400	1.000212	-0.577734	-0.147290	0.992318	-0.563756	-0.106226	0.968301	-0.369847	-0.377461	0.877459	-0.483576	-0.381965	0.752014	-0.487839	-0.377777	0.759223	-0.422755	-0.372958	0.678789	-0.405720	-0.377301	0.665638	-0.468623	-0.362185	0.517894	-0.458185	-0.241705	0.520294	-0.435949	-0.384664	0.431025	-0.548157	-0.357893	0.386554	-0.510255	-0.356576	0.331592	-0.575144	-0.383079	0.378851	-0.610737	-0.341714	0.239986	-0.785110	-0.270084	0.227552	-0.750613	-0.299223	0.251284	-0.859641	-0.301434	0.078970	-0.705118	-0.350526	0.082305	-0.767681	-0.245829	0.085798	-0.727422	-0.038537	0.897715	-0.429974	-0.057131	0.689902	-0.350760	-0.088708	0.705071	-0.298526	-0.106879	0.624345	-0.289035	-0.075286	0.604534	-0.341409	-0.110168	0.534081	-0.307174	-0.211680	0.549665	-0.345774	-0.080602	0.309651	-0.323996	-0.127225	0.315613	-0.278793	-0.133130	0.228455	-0.287957	-0.088473	0.226888	-0.332038	-0.112763	0.094582	-0.343664	-0.195034	0.117625	-0.339301	-0.145819	0.054714	-0.412081	-0.168202	0.062469	-0.176171	-0.108060	0.044177	-0.211988	-0.216098	0.053043	-0.204882
